:SAMPLES-PER-SECOND 30
:FULLY-SPECIFIED
:DEGREES
1117
root  35.3062 34.9639 16.1509 -149.924 -49.6411 177.791
RightUpLeg  -69.0211 -30.3619 10.4789
RightLeg  51.7615 -1.50978 -2.45603
RightFoot  -11.578 -0.0640172 6.34496
RightToes  2.91037e-010 0 -3.6325e-017
Spine  69.0963 -4.21434 10.0197
Spine1  14.461 2.86219 -1.40994
HEad  -50.8967 -5.2294 -0.283442
LeftShoulder1  4.28224 -30.9555 -4.3577
LeftArm  -75.4461 -70.4873 35.7363
LeftForeArm  44.5463 0.0412343 -2.62972
LeftHand  -0.244104 0.0205437 5.32207
RightShoulder  0.512135 13.3289 -6.12664
RightArm  -58.5597 60.7276 -21.4827
RightForeArm  28.8039 3.59226 1.66267
RightHand  -10.9244 24.4203 -40.9239
LeftUpLeg  -60.9779 7.05788 -1.2328
LeftLeg  73.3888 3.86163 15.3936
LeftFoot  -5.96526 -0.247282 6.30751
LeftToes  -1.10052e-010 1.3781e-010 -2.1811e-011
1118
root  35.246 34.9167 14.603 -149.561 -52.9612 176.733
RightUpLeg  -67.0535 -31.2271 10.6486
RightLeg  55.0025 -2.92776 -4.92427
RightFoot  -15.1215 0.098019 5.9207
RightToes  2.91037e-010 0 -3.6325e-017
Spine  68.6701 -4.26937 9.44695
Spine1  15.9291 2.56877 -1.6477
HEad  -51.4723 -5.09288 -0.11235
LeftShoulder1  3.87614 -30.187 -3.3425
LeftArm  -76.9248 -70.2778 37.5557
LeftForeArm  44.1711 0.846196 -2.50677
LeftHand  -0.244104 0.0205437 5.32207
RightShoulder  0.384698 13.1344 -6.95948
RightArm  -58.997 61.2385 -21.087
RightForeArm  28.1147 3.3849 1.57821
RightHand  -10.5925 23.7607 -40.6173
LeftUpLeg  -64.7248 8.94445 -5.38268
LeftLeg  73.4309 3.21236 13.2042
LeftFoot  -8.35171 -0.101296 5.56517
LeftToes  -1.10052e-010 1.3781e-010 -2.1811e-011
1119
root  35.0805 34.9124 13.13 -149.019 -56.3321 175.613
RightUpLeg  -64.5526 -32.065 10.8209
RightLeg  57.2337 -4.37634 -7.74386
RightFoot  -18.9883 0.349626 7.12674
RightToes  2.91037e-010 0 -3.6325e-017
Spine  68.8827 -4.27325 8.69151
Spine1  16.2572 2.38108 -2.15319
HEad  -51.4585 -5.12682 0.13615
LeftShoulder1  3.78443 -30.1049 -3.05845
LeftArm  -77.4503 -69.7944 38.8169
LeftForeArm  44.6596 1.179 -2.50475
LeftHand  -0.244104 0.0205437 5.32207
RightShoulder  0.474203 13.1564 -6.35163
RightArm  -59.2941 61.6442 -21.647
RightForeArm  27.6827 3.4574 1.76141
RightHand  -10.0179 22.8611 -39.7385
LeftUpLeg  -67.9673 10.8899 -11.9415
LeftLeg  70.1316 3.43706 11.3245
LeftFoot  -11.3362 0.0706076 3.44233
LeftToes  -1.10052e-010 1.3781e-010 -2.1811e-011
1120
root  34.7826 34.9381 11.7217 -148.429 -59.6024 174.993
RightUpLeg  -62.2328 -32.6834 11.5407
RightLeg  58.4254 -5.51255 -10.0587
RightFoot  -22.0797 0.643339 8.44872
RightToes  2.91037e-010 0 -3.6325e-017
Spine  69.2783 -3.68743 8.08963
Spine1  15.9785 2.57437 -1.64794
HEad  -51.0834 -5.57228 -0.204332
LeftShoulder1  4.49417 -31.0927 -4.98859
LeftArm  -77.7586 -69.2986 40.4053
LeftForeArm  45.9791 0.625937 -2.83608
LeftHand  -0.244104 0.0205437 5.32207
RightShoulder  0.680405 13.4176 -5.00491
RightArm  -59.0926 61.5428 -22.7873
RightForeArm  26.9621 3.51444 2.12558
RightHand  -9.64323 22.2485 -39.1642
LeftUpLeg  -70.8514 13.282 -20.6433
LeftLeg  64.1209 4.22262 10.0974
LeftFoot  -13.2027 0.0937623 1.04989
LeftToes  -1.10052e-010 1.3781e-010 -2.1811e-011
1121
root  34.3154 34.9805 10.3935 -147.976 -62.6135 175.147
RightUpLeg  -60.3408 -33.1101 12.8809
RightLeg  59.0421 -6.26023 -11.6058
RightFoot  -23.7489 0.87486 9.51926
RightToes  2.91037e-010 0 -3.6325e-017
Spine  69.3443 -3.43423 7.79758
Spine1  16.079 3.14748 -2.07542
HEad  -50.8548 -6.06959 -0.536096
LeftShoulder1  4.53601 -31.1049 -5.11263
LeftArm  -79.5275 -69.4903 41.8748
LeftForeArm  47.0133 -0.0705207 -2.75682
LeftHand  -0.244104 0.0205437 5.32207
RightShoulder  0.838003 13.6093 -4.00336
RightArm  -59.3341 61.2 -23.8828
RightForeArm  25.8751 3.19528 2.25969
RightHand  -9.50888 21.9804 -39.0137
LeftUpLeg  -72.5246 15.7986 -30.5805
LeftLeg  55.3112 3.92557 6.72249
LeftFoot  -13.9038 0.00552701 -3.71961
LeftToes  -1.10052e-010 1.3781e-010 -2.1811e-011
